# xmcd
#
# Track frame offsets: 
#        150
#        20416
#        41958
#        61612
#        90659
#        149603
#        183464
#        204235
#        240869
#        268685
#        296893
#        330329
#
# Disc length: 4551 seconds
#
# Revision: 0
# Processed by: cddbd v1.5.2PL0 Copyright (c) Steve Scherf et al.
# Submitted via: ExactAudioCopyFreeDBPlugin 1.0
#
DISCID=a911c50c
DTITLE=Eddy Clearwater - Soul Funky
DYEAR=2014
DGENRE=Blues
TTITLE0=They Call Me The Chief
TTITLE1=Hypnotized
TTITLE2=Too Old To Get Married
TTITLE3=Good Times Are Coming
TTITLE4=Came Up The hard Way - Root To The Fruit
TTITLE5=Cool Blues Walk
TTITLE6=Please Accept My Love
TTITLE7=Find You A Job
TTITLE8=Lonesome Town
TTITLE9=A Good Leavin' Alone
TTITLE10=Soul Funky
TTITLE11=Ending Midnight Groove
EXTD=
EXTT0=
EXTT1=
EXTT2=
EXTT3=
EXTT4=
EXTT5=
EXTT6=
EXTT7=
EXTT8=
EXTT9=
EXTT10=
EXTT11=
PLAYORDER=
